<svg width="305" height="259" viewBox="0 0 305 259" fill="none" xmlns="http://www.w3.org/2000/svg">
<g filter="url(#filter0_d_805_3223)">
<rect x="4.30566" width="295.751" height="250.957" rx="5" fill="white"/>
</g>
<g clip-path="url(#clip0_805_3223)">
<path fill-rule="evenodd" clip-rule="evenodd" d="M211.586 67.5809C208.844 67.7008 205.409 67.8786 203.95 67.9752C202.491 68.0724 200.718 68.1844 200.011 68.2239C191.485 68.703 175.345 71.2889 172.639 72.61C168.159 74.7965 168.221 81.6779 172.743 83.9697C174.3 84.7591 175.359 84.8095 178.551 84.247C184.525 83.1943 188.476 82.7649 201.137 81.7928C202.197 81.7108 208.337 81.6004 214.78 81.547L226.494 81.4504L226.392 78.6963C226.224 74.204 225.936 67.5838 225.907 67.5479C225.771 67.3834 215.57 67.4068 211.586 67.5809ZM239.902 70.9173C240.094 73.5464 240.44 80.318 240.44 81.4658V82.0824L242.443 82.1892C247.401 82.4548 254.763 83.2799 259.409 84.0912C264.139 84.9178 265.362 84.8571 267.171 83.7049C271.121 81.1907 270.827 74.8317 266.663 72.7395C264.269 71.5369 244.935 68.3051 240.135 68.3051H239.71L239.902 70.9173ZM174.476 92.1071C168.972 93.031 167.445 100.527 172.125 103.652C174.268 105.083 185.167 107.162 198.789 108.738L199.495 108.82L199.397 107.762C199.342 107.179 199.219 104.955 199.124 102.817C199.028 100.68 198.91 98.05 198.862 96.9724L198.774 95.012L197.946 94.9264C197.491 94.8788 195.852 94.7274 194.304 94.5899C188.617 94.0837 182.66 93.2666 177.867 92.3368C175.67 91.9104 175.656 91.9089 174.476 92.1071ZM260.775 92.5834C256.685 93.4304 247.819 94.4004 238.752 94.9922C234.298 95.2834 226.565 95.4597 219.642 95.4275L212.589 95.3953L212.693 98.4494C212.866 103.487 213.146 109.216 213.225 109.302C213.266 109.346 216.097 109.383 219.516 109.383C225.265 109.383 229.601 109.231 235.698 108.819C237.024 108.729 238.907 108.622 239.883 108.582C247.402 108.267 264.317 105.47 266.846 104.122C270.289 102.286 271.081 97.2226 268.387 94.2739C266.669 92.3946 264.265 91.8606 260.775 92.5834ZM146.561 163.483V177.952H149.295H152.027V170.717V163.483L152.549 163.483C154.418 163.486 154.626 163.745 158.915 171.383L162.557 177.872L165.59 177.915C168.422 177.956 168.614 177.94 168.513 177.678C168.454 177.523 166.567 174.203 164.319 170.301C162.072 166.399 160.193 163.101 160.143 162.973C160.091 162.837 161.732 159.916 164.016 156.077C166.196 152.413 168.016 149.323 168.06 149.21C168.123 149.048 167.527 149.015 165.196 149.049L162.252 149.093L159.326 154.157C157.717 156.943 156.338 159.217 156.263 159.212C156.188 159.206 155.765 159.031 155.322 158.821C154.701 158.526 154.235 158.437 153.273 158.429L152.028 158.418V153.715L152.027 149.012H149.295H146.561V163.483ZM118.108 159.035C118.108 169.922 118.119 170.031 119.31 172.293C123.111 179.504 135.954 179.422 139.459 172.164C140.539 169.927 140.515 170.21 140.575 159.262L140.629 149.334H138.05H135.47L135.466 158.137C135.463 167.442 135.39 168.643 134.749 169.909C133.725 171.929 132.2 172.727 129.361 172.727C126.35 172.727 124.8 171.883 123.788 169.692L123.333 168.707L123.287 159.021L123.241 149.334H120.675H118.108V159.035ZM175.267 149.692C175.225 149.893 174.716 155.99 174.137 163.241C173.559 170.492 173.041 176.77 172.989 177.192L172.894 177.96L175.601 177.915L178.308 177.872L178.902 170.074C179.229 165.785 179.505 161.3 179.515 160.106L179.535 157.936L180.157 159.704C180.498 160.677 181.856 164.077 183.175 167.26L185.574 173.048H187.946H190.318L192.644 167.502C193.923 164.451 195.286 161.05 195.672 159.945L196.374 157.936L196.379 159.785C196.382 160.802 196.656 165.305 196.989 169.793L197.593 177.952H200.254H202.915L201.757 163.683C201.12 155.835 200.593 149.395 200.587 149.371C200.579 149.347 199.292 149.347 197.725 149.371L194.877 149.415L192.104 156.408C190.578 160.254 189.023 164.325 188.647 165.452L187.965 167.502L187.203 165.291C186.785 164.075 185.222 160.006 183.73 156.247L181.018 149.415L178.181 149.371C175.344 149.327 175.344 149.327 175.267 149.692Z" fill="#93AB3C"/>
<path fill-rule="evenodd" clip-rule="evenodd" d="M207.727 38.3045C206.013 38.848 204.616 39.9826 203.886 41.4222C202.771 43.6219 200.623 56.2332 199.722 65.8739L199.506 68.1855L201.044 68.0823C205.591 67.7773 207.525 67.669 210.248 67.5673L213.252 67.4554L213.336 66.8753C213.382 66.5557 213.466 65.5352 213.521 64.6069C213.814 59.6845 214.853 50.6583 215.526 47.1924C216.281 43.3052 215.668 41.093 213.346 39.3235C211.901 38.2226 209.409 37.7712 207.727 38.3045ZM227.82 38.3045C224.094 39.4866 222.707 42.363 223.62 47.0169C224.397 50.9773 225.256 58.231 225.646 64.1241C225.743 65.5835 225.892 67.2477 225.977 67.8219C226.286 69.8972 226.472 76.9256 226.461 86.0293L226.45 95.3145L228.34 95.3137C230.402 95.3137 236.992 95.0621 239.114 94.9026L240.44 94.8031L240.439 89.0702C240.436 71.9345 238.749 54.6341 236.01 43.6599C234.947 39.3989 231.493 37.1399 227.82 38.3045ZM182.408 49.3599C181.759 49.5435 180.903 50.3058 180.643 50.9341C180.283 51.8032 180.498 59.6765 180.896 60.2141C181.776 61.4007 181.828 61.4109 186.691 61.3582C192.854 61.2917 192.699 61.446 192.693 55.3686C192.688 49.2502 192.62 49.1814 186.588 49.1939C184.599 49.1982 182.718 49.2729 182.408 49.3599ZM248.536 49.3255C246.734 49.7557 246.548 50.3233 246.548 55.403C246.548 61.5353 246.404 61.3911 252.536 61.3911C257.266 61.3911 257.51 61.3407 258.257 60.2127L258.685 59.5667L258.735 55.7519C258.821 49.2955 258.696 49.1631 252.577 49.1902C250.631 49.1982 248.813 49.2597 248.536 49.3255ZM206.28 81.6527C204.689 81.7149 202.32 81.8209 201.016 81.8875L198.644 82.0089V88.5011C198.644 92.0717 198.706 94.9926 198.78 94.9926C198.854 94.9926 198.965 96.708 199.025 98.8038C199.426 112.665 201.824 130.891 203.801 135.096C205.63 138.987 211.057 139.825 214.109 136.687C215.923 134.821 216.144 133.124 215.25 127.951C214.49 123.553 213.995 119.279 213.518 113C213.379 111.187 213.199 109.305 213.117 108.819C212.826 107.098 212.61 98.1798 212.66 89.8881L212.71 81.4881L210.942 81.5137C209.97 81.5283 207.872 81.5905 206.28 81.6527ZM235.938 108.907C234.48 109.016 231.612 109.161 229.566 109.228L225.846 109.351L225.738 110.894C225.219 118.342 224.337 125.99 223.552 129.876C223.025 132.486 223.212 134.097 224.229 135.7C226.883 139.88 233.349 139.462 235.376 134.98C236.538 132.41 238.524 120.422 239.557 109.744L239.661 108.659L239.126 108.683C238.832 108.696 237.398 108.797 235.938 108.907ZM35 129.72V144.189H37.7326H40.4659V136.955V129.72H41.138C42.9461 129.72 42.7874 129.517 47.3814 137.678L51.0012 144.109L54.0307 144.153C56.8745 144.194 57.0537 144.179 56.9513 143.911C56.8913 143.755 54.9999 140.426 52.7486 136.514C50.4973 132.603 48.6168 129.302 48.57 129.18C48.5232 129.057 50.2968 125.911 52.5123 122.189C54.7278 118.466 56.541 115.382 56.541 115.335C56.541 115.289 55.2207 115.253 53.6072 115.256L50.6735 115.262L47.7208 120.408C46.0971 123.238 44.7227 125.529 44.6664 125.498C43.4354 124.827 42.8759 124.669 41.7122 124.662L40.4673 124.656L40.4666 119.953L40.4659 115.25H37.7326H35V129.72ZM59.9581 125.982C60.021 137.927 59.983 137.489 61.1562 139.728C63.0367 143.319 65.3223 144.189 72.8647 144.189H77.9203V141.858V139.527L74.5045 139.526C67.303 139.523 65.5425 138.442 65.4079 133.94L65.3487 131.971H70.1877H75.0268V129.639V127.308H70.2046H65.3816V123.61V119.912H71.3295H77.2774V117.581V115.25H68.5896H59.9018L59.9581 125.982ZM84.9938 115.468C84.9938 115.593 84.4869 121.882 83.8681 129.444C83.2494 137.006 82.7432 143.418 82.7432 143.692V144.189H85.3829H88.0219L88.1221 143.184C88.4344 140.025 89.3355 127.146 89.3435 125.71L89.3538 124.013L89.9755 125.781C90.3178 126.754 91.6797 130.154 93.0013 133.337L95.4048 139.125L97.7943 139.164L100.185 139.203L102.636 133.296C103.985 130.047 105.337 126.665 105.642 125.781L106.195 124.173L106.204 125.479C106.209 126.197 106.502 130.601 106.856 135.266C107.209 139.931 107.499 143.848 107.499 143.968C107.499 144.147 108.01 144.189 110.151 144.189H112.804V143.684C112.804 143.142 110.786 117.716 110.62 116.174L110.522 115.25H107.655H104.79L104.308 116.496C104.043 117.182 102.709 120.563 101.345 124.013C99.9805 127.461 98.6259 131.002 98.3348 131.882L97.8053 133.482L97.1156 131.481C96.736 130.379 95.1641 126.295 93.6223 122.405L90.8188 115.33L87.9063 115.286C85.4926 115.25 84.9938 115.281 84.9938 115.468ZM118.269 125.755C118.269 135.615 118.288 136.334 118.58 137.476C119.353 140.498 121.125 142.518 124.02 143.674L125.101 144.106L130.687 144.157L136.273 144.208V141.884V139.559L132.214 139.489C125.383 139.371 123.776 138.309 123.603 133.795L123.534 131.971H128.376H133.219V129.639V127.308H128.396H123.574V123.61V119.912H129.602H135.63V117.581V115.25H126.949H118.269V125.755ZM141.257 129.72V144.189H143.921H146.586L146.534 133.9C146.504 128.241 146.488 123.61 146.497 123.61C146.506 123.61 149.436 128.239 153.008 133.898L159.502 144.185L162.194 144.187L164.886 144.189V129.72V115.25H162.141H159.394L159.448 125.438C159.486 132.768 159.453 135.552 159.328 135.366C159.233 135.222 158.912 134.671 158.617 134.141C154.555 126.853 148.891 118.218 146.779 116.094L145.939 115.25H143.598H141.257V129.72ZM181.774 115.765C180.556 116.595 180.565 116.554 180.512 121.296C180.441 127.626 180.348 127.522 186.186 127.601C192.626 127.688 192.696 127.621 192.692 121.359C192.688 115.36 192.842 115.511 186.663 115.444C182.358 115.397 182.311 115.4 181.774 115.765ZM247.822 115.776C246.573 116.618 246.548 116.725 246.548 121.399C246.548 126.13 246.599 126.375 247.727 127.122L248.373 127.549L252.187 127.6C258.713 127.686 258.822 127.577 258.735 121.062C258.659 115.31 258.77 115.411 252.526 115.411C248.463 115.411 248.351 115.419 247.822 115.776ZM68.7578 148.94C53.8866 152.13 53.4653 173.527 68.1953 177.492C75.0641 179.341 82.6979 175.701 85.3953 169.29C90.1627 157.957 80.6982 146.379 68.7578 148.94ZM35 163.482V177.952H37.7326H40.4659V170.717V163.482H40.9888C42.8503 163.482 43.0807 163.768 47.3302 171.379L50.9946 177.941L54.0263 177.946C56.6799 177.951 57.0456 177.921 56.963 177.706C56.9111 177.571 55.0554 174.311 52.8385 170.461C50.6223 166.611 48.7353 163.301 48.646 163.105C48.5049 162.795 49.0037 161.874 52.4494 156.081C54.6312 152.414 56.4525 149.322 56.4971 149.21C56.5607 149.047 55.9661 149.014 53.6321 149.049L50.686 149.093L47.7566 154.157C46.1461 156.942 44.7688 159.217 44.6964 159.212C44.624 159.206 44.2027 159.03 43.7609 158.82C43.1399 158.525 42.674 158.436 41.7115 158.428L40.4666 158.417L40.4659 153.715V149.012H37.7326H35V163.482ZM91.9057 163.321V177.469H94.5585H97.2106V172.565V167.662H100.874C104.944 167.662 105.715 167.544 107.405 166.657C113.511 163.456 113.425 152.983 107.27 150.07C105.462 149.215 105.041 149.173 98.2215 149.173H91.9057V163.321ZM74.1491 153.759C81.2577 155.574 83.6121 164.955 78.313 170.348C72.4588 176.309 62.8158 171.835 62.8158 163.16C62.8158 156.854 68.3358 152.274 74.1491 153.759ZM103.631 153.928C106.947 154.913 107.646 160.308 104.715 162.302C103.691 162.999 102.764 163.16 99.775 163.16H97.2106V158.417V153.675H99.9944C102.06 153.675 102.998 153.74 103.631 153.928ZM35.1609 191.778V195.637H35.8843H36.6077V194.029V192.421L37.0494 192.422C37.4429 192.425 37.5885 192.602 38.3733 194.03L39.2547 195.637H40.1009C41.141 195.637 41.1563 195.792 39.9027 193.609C38.63 191.391 38.5349 192.06 40.6239 188.522L40.9793 187.919H40.1148H39.2503L38.3711 189.445C37.5973 190.788 37.4385 190.972 37.0494 190.973L36.6077 190.974V189.447V187.919H35.8843H35.1609V191.778ZM87.2444 188.643V189.366H87.9677H88.6911V188.643V187.919H87.9677H87.2444V188.643ZM106.856 191.778V195.637H107.579H108.303V194.029V192.421H108.748C109.147 192.421 109.287 192.591 110.074 194.024L110.955 195.628L111.892 195.632L112.829 195.637L112.509 195.114C111.904 194.129 110.553 191.752 110.553 191.674C110.553 191.631 111.023 190.799 111.598 189.825C112.173 188.85 112.643 188.023 112.643 187.987C112.643 187.949 112.263 187.919 111.799 187.919H110.955L110.096 189.447C109.319 190.829 109.192 190.974 108.769 190.974H108.303V189.447V187.919H107.579H106.856V191.778ZM150.098 188.643V189.366H150.902H151.705V188.643V187.919H150.902H150.098V188.643ZM160.064 189.142C160.064 190.248 160.037 190.353 159.783 190.238C157.324 189.127 155.154 191.809 156.361 194.468C156.937 195.738 158.941 196.267 159.897 195.4C160.19 195.136 160.225 195.133 160.225 195.37C160.225 195.578 160.382 195.637 160.948 195.637H161.672V191.778V187.919H160.868H160.064V189.142ZM179.515 190.722C179.515 194.815 180.13 195.797 182.691 195.797C185.209 195.797 185.778 194.887 185.782 190.853L185.784 187.919H185.061H184.338V190.417C184.338 193.804 184.093 194.35 182.573 194.35C181.252 194.35 181.122 194.028 181.122 190.74V187.919H180.319H179.515V190.722ZM187.874 191.778V195.637H188.678H189.482V194.029C189.482 192.44 189.486 192.421 189.867 192.421C190.186 192.421 190.406 192.693 191.162 194.029L192.072 195.637H192.956C193.443 195.637 193.812 195.582 193.777 195.516C193.742 195.449 193.229 194.553 192.637 193.525L191.561 191.655L192.611 189.908C193.867 187.816 193.854 187.919 192.862 187.919H192.064L191.166 189.447C190.42 190.714 190.2 190.974 189.874 190.974C189.485 190.974 189.482 190.959 189.482 189.447V187.919H188.678H187.874V191.778ZM195.59 187.984C195.59 188.142 195.112 193.807 195.023 194.712L194.931 195.637H195.724H196.517L196.62 194.069C196.677 193.207 196.766 192.15 196.817 191.722L196.911 190.941L197.586 192.605L198.261 194.27L198.992 194.318L199.723 194.366L200.43 192.637L201.136 190.908L201.257 192.428C201.323 193.264 201.419 194.328 201.469 194.793L201.561 195.637H202.273C203.129 195.637 203.089 196.027 202.718 191.335L202.448 187.919H201.626C200.807 187.919 200.803 187.922 200.542 188.602C200.397 188.979 199.997 190.022 199.652 190.923L199.026 192.56L198.135 190.28L197.245 188L196.418 187.951C195.962 187.924 195.59 187.939 195.59 187.984ZM72.1333 189.366C72.1333 190.063 72.0909 190.17 71.8122 190.17C71.5438 190.17 71.4904 190.278 71.4904 190.813C71.4904 191.349 71.5438 191.456 71.8122 191.456C72.1084 191.456 72.1333 191.564 72.1355 192.863C72.1391 194.911 72.597 195.554 74.1856 195.742L75.0268 195.842V195.106C75.0268 194.395 75.01 194.369 74.5082 194.32C73.8302 194.254 73.5859 193.763 73.5822 192.461L73.58 191.456H74.2229H74.8659V190.813V190.17H74.2229H73.58V189.366V188.562H72.8567H72.1333V189.366ZM43.2592 190.232C41.2902 191.123 41.247 194.455 43.1919 195.436C44.308 195.998 45.8535 195.894 46.8709 195.186C47.0581 195.056 46.8511 194.34 46.5023 193.91C46.4854 193.89 46.1899 194.016 45.8462 194.192C45.005 194.621 44.4462 194.594 43.8538 194.095C42.9607 193.343 43.1458 193.225 45.2077 193.225H47.0567V192.577C47.0567 190.595 45.1111 189.393 43.2592 190.232ZM50.4724 190.329C50.046 190.589 49.9502 190.604 49.9502 190.409C49.9502 190.233 49.7593 190.17 49.2268 190.17H48.5034V192.903V195.637H49.2122H49.9209L49.9758 193.965C50.0335 192.199 50.2135 191.755 50.9946 191.456C51.7531 191.166 51.8789 191.476 51.8789 193.632V195.637H52.6827H53.4866V194.101C53.4866 192.414 53.7104 191.726 54.3284 191.517C55.2851 191.192 55.4102 191.448 55.4131 193.747L55.4153 195.637H56.1387H56.862V193.293V190.949L56.3925 190.48C55.6676 189.755 53.3256 189.999 53.3256 190.799C53.3256 190.881 53.1143 190.738 52.8561 190.48C52.2761 189.899 51.2799 189.837 50.4724 190.329ZM59.5719 190.356C56.2945 192.257 59.2136 197.048 62.7075 195.502C63.5253 195.14 63.5684 195.041 63.2085 194.343L62.9643 193.871L62.3667 194.191C61.3756 194.722 60.3363 194.485 59.9508 193.639L59.7628 193.225H61.7106H63.6584L63.564 192.43C63.3131 190.309 61.3829 189.306 59.5719 190.356ZM67.3111 190.123C67.1787 190.172 66.9073 190.359 66.7084 190.54L66.3463 190.869V190.52C66.3463 190.213 66.2586 190.17 65.623 190.17H64.8996V192.903V195.637H65.7034H66.5072V194.101C66.5072 192.344 66.7413 191.689 67.4347 191.506C68.5574 191.209 68.7578 191.559 68.7578 193.818V195.637H69.4812H70.2046V193.474C70.2046 190.365 69.351 189.377 67.3111 190.123ZM77.2759 190.371C75.4751 191.597 75.5724 194.523 77.4456 195.479C79.0503 196.298 81.6549 195.5 80.96 194.403L80.6463 193.906L80.0531 194.209C78.9238 194.785 77.5992 194.333 77.5992 193.373C77.5992 193.292 78.4308 193.225 79.4475 193.225H81.2965L81.2957 192.542C81.295 190.494 78.953 189.23 77.2759 190.371ZM84.6844 190.425C84.2083 190.826 84.19 190.829 84.19 190.506C84.19 190.21 84.0942 190.17 83.3861 190.17H82.5823V192.903V195.637H83.3708H84.16L84.2148 194.041C84.2777 192.232 84.5586 191.714 85.5819 191.521C86.0938 191.425 86.1187 191.387 86.1187 190.715C86.1187 189.844 85.519 189.723 84.6844 190.425ZM91.0616 190.276C90.3851 190.557 90.358 190.634 90.704 191.303C90.9907 191.858 90.9395 191.843 91.5261 191.538C92.2187 191.177 92.9648 191.228 93.2676 191.657C93.5097 192 93.5038 192.022 93.1564 192.066C90.8773 192.359 90.1378 192.841 90.1378 194.034C90.1378 195.495 91.6168 196.287 93.0043 195.57C93.2881 195.423 93.5133 195.379 93.5133 195.471C93.5133 195.562 93.8388 195.637 94.2367 195.637H94.9601V193.621C94.9601 191.322 94.7721 190.652 94.0166 190.262C93.3941 189.94 91.8545 189.947 91.0616 190.276ZM98.6976 190.329C98.2712 190.589 98.1754 190.604 98.1754 190.409C98.1754 190.229 97.975 190.17 97.3716 190.17H96.5677V192.903V195.637H97.3716H98.1754V194.031C98.1754 192.501 98.1959 192.403 98.6172 191.954C99.8386 190.649 100.426 191.244 100.426 193.787V195.637H101.16H101.895L101.843 193.21L101.792 190.785L101.341 190.397C100.753 189.892 99.4685 189.859 98.6976 190.329ZM115.134 190.237C112.879 191.244 112.901 194.605 115.169 195.576C117.943 196.763 120.645 193.908 119.155 191.365C118.458 190.175 116.503 189.626 115.134 190.237ZM122.711 190.343C122.36 190.619 122.288 190.632 122.288 190.423C122.288 190.235 122.122 190.17 121.645 190.17H121.001V194.029V197.888H121.725H122.448V196.592V195.297L122.806 195.547C123.759 196.215 125.514 195.66 126.105 194.505C127.448 191.886 124.83 188.676 122.711 190.343ZM128.854 190.334C125.44 192.138 128.516 197.086 132.053 195.48C132.808 195.138 132.848 195.033 132.493 194.346L132.249 193.875L131.549 194.215C130.675 194.64 129.845 194.528 129.368 193.921C128.85 193.262 128.931 193.225 130.87 193.225C132.919 193.225 132.992 193.183 132.798 192.118C132.46 190.244 130.609 189.406 128.854 190.334ZM136.331 190.319C136.053 190.488 135.788 190.722 135.741 190.84C135.694 190.958 135.65 190.856 135.643 190.612C135.631 190.197 135.586 190.17 134.906 190.17H134.183V192.903V195.637H134.987H135.791V194.182C135.791 192.376 136.012 191.869 136.917 191.598C137.538 191.412 137.559 191.382 137.559 190.708C137.559 189.891 137.213 189.781 136.331 190.319ZM139.387 190.241C138.708 190.537 138.627 190.718 138.923 191.291C139.208 191.842 139.253 191.855 139.81 191.537C140.346 191.23 141.174 191.236 141.486 191.548C141.848 191.91 141.799 192.099 141.344 192.099C139.105 192.099 137.849 193.368 138.555 194.918C138.956 195.799 140.648 196.115 141.476 195.464C141.827 195.188 141.899 195.174 141.899 195.384C141.899 195.572 142.065 195.637 142.542 195.637H143.185V193.557C143.185 191.185 143.08 190.779 142.346 190.332C141.718 189.949 140.167 189.902 139.387 190.241ZM145.516 190.196C144.036 191.01 144.367 192.585 146.194 193.413C146.951 193.756 147.212 193.954 147.173 194.155C147.097 194.56 146.316 194.588 145.674 194.21L145.124 193.885L144.798 194.343C144.332 194.998 144.38 195.132 145.218 195.502C148.352 196.889 150.297 193.819 147.217 192.347C146.555 192.03 146.244 191.792 146.276 191.625C146.341 191.278 147.087 191.226 147.671 191.529C148.157 191.78 148.651 191.344 148.651 190.665C148.651 190.128 146.282 189.774 145.516 190.196ZM163.882 190.276C163.205 190.557 163.179 190.634 163.525 191.303C163.811 191.858 163.76 191.843 164.346 191.538C164.974 191.21 165.745 191.233 166.068 191.589C166.43 191.99 166.403 192.099 165.94 192.099C163.52 192.099 162.098 193.815 163.329 195.246C163.81 195.805 165.057 195.967 165.825 195.57C166.109 195.423 166.333 195.379 166.333 195.471C166.333 195.562 166.659 195.637 167.057 195.637H167.78V193.539C167.78 191.199 167.626 190.67 166.821 190.254C166.214 189.94 164.665 189.951 163.882 190.276ZM171.517 190.329C171.092 190.589 170.995 190.604 170.995 190.409C170.995 190.229 170.796 190.17 170.191 190.17H169.388V192.903V195.637H170.191H170.995V194.031C170.995 192.501 171.016 192.403 171.437 191.954C172.658 190.649 173.246 191.244 173.246 193.787V195.637H173.981H174.716L174.664 193.21L174.612 190.785L174.161 190.397C173.573 189.892 172.289 189.859 171.517 190.329ZM87.2444 192.903V195.637H88.0475H88.8513V192.903V190.17H88.0475H87.2444V192.903ZM150.098 192.903V195.637H150.902H151.705V192.903V190.17H150.902H150.098V192.903ZM45.0914 191.385C45.7745 191.864 45.5448 192.099 44.398 192.099C43.3879 192.099 43.3542 192.087 43.5247 191.768C43.8392 191.181 44.5516 191.007 45.0914 191.385ZM61.805 191.576C62.1509 192.029 62.0368 192.099 60.9616 192.099C59.8148 192.099 59.6956 191.975 60.3516 191.459C60.8366 191.077 61.4627 191.128 61.805 191.576ZM79.367 191.456C79.89 191.979 79.7539 192.099 78.6385 192.099C77.6453 192.099 77.597 192.082 77.7564 191.785C78.1199 191.106 78.8645 190.954 79.367 191.456ZM130.866 191.468C131.51 191.974 131.387 192.099 130.245 192.099C129.67 192.099 129.2 192.033 129.2 191.951C129.2 191.753 129.993 191.135 130.245 191.135C130.353 191.135 130.633 191.285 130.866 191.468ZM117.485 191.749C117.907 192.125 117.992 192.319 117.992 192.903C117.992 194.309 116.486 195.003 115.524 194.041C114.098 192.616 115.985 190.409 117.485 191.749ZM124.337 191.542C124.892 191.932 125.105 192.871 124.803 193.594C124.178 195.09 122.448 194.583 122.448 192.903C122.448 191.619 123.433 190.909 124.337 191.542ZM159.67 191.69C160.524 192.545 159.989 194.511 158.902 194.511C157.986 194.511 157.373 193.431 157.672 192.346C157.958 191.311 158.961 190.981 159.67 191.69ZM93.5126 193.346C93.5111 193.654 92.8675 194.474 92.5647 194.553C92.1171 194.67 91.4946 194.172 91.6343 193.809C91.8018 193.373 93.5148 192.95 93.5126 193.346ZM141.739 193.478C141.739 193.764 140.892 194.672 140.626 194.672C140.327 194.672 139.813 194.047 139.907 193.8C140.099 193.3 141.739 193.011 141.739 193.478ZM166.333 193.294C166.333 194.109 165.384 194.824 164.807 194.445C164.284 194.103 164.297 193.776 164.846 193.477C165.248 193.26 166.333 193.126 166.333 193.294ZM35.1609 206.867V210.749H35.7234H36.2858V209.302V207.855H37.0736H37.8613L38.6081 209.302L39.3556 210.749H40.0746H40.7936L40.4842 210.146C40.3145 209.814 39.9188 209.091 39.605 208.537L39.0345 207.53L39.4148 207.282C40.2706 206.721 40.5646 205.149 39.9905 204.206C39.4536 203.326 39.0594 203.176 37.018 203.076L35.1609 202.984V206.867ZM62.167 206.89V210.749H62.7295C63.1274 210.749 63.2919 210.677 63.2919 210.503C63.2919 210.306 63.3841 210.326 63.7615 210.604C64.9347 211.471 66.8744 210.62 67.3155 209.045C68.0417 206.449 65.8548 204.198 63.8149 205.442L63.2919 205.76V204.396V203.032H62.7295H62.167V206.89ZM68.9187 206.476C68.9187 210.287 68.9268 210.34 69.5726 210.675C70.4093 211.108 70.8475 210.995 70.8475 210.348C70.8475 209.96 70.7736 209.784 70.6119 209.784C70.1402 209.784 70.0436 209.158 70.0436 206.097V203.032H69.4812H68.9187V206.476ZM72.1333 203.675V204.318H72.7762H73.4191V203.675V203.032H72.7762H72.1333V203.675ZM75.3486 206.89V210.749H75.9111H76.4735V209.544C76.4735 207.866 76.829 207.866 77.8852 209.542C78.6349 210.734 78.6517 210.748 79.3268 210.748C80.1759 210.749 80.1928 210.847 79.0613 209.165L78.1126 207.754L78.9808 206.606C80.0231 205.228 80.0158 205.282 79.1666 205.288C78.5186 205.292 78.4469 205.342 77.7864 206.253C76.6527 207.814 76.4735 207.66 76.4735 205.122V203.032H75.9111H75.3486V206.89ZM84.672 206.89V210.749H85.3149H85.9578V206.89V203.032H85.3149H84.672V206.89ZM98.6574 204.424C98.6574 205.808 98.6559 205.814 98.3334 205.522C97.4125 204.689 95.4962 205.176 94.8438 206.411C93.476 208.996 95.8356 211.992 98.1352 210.59C98.5616 210.33 98.6574 210.315 98.6574 210.511C98.6574 210.676 98.8293 210.749 99.2198 210.749H99.7823V206.89V203.032H99.2198H98.6574V204.424ZM127.11 203.675C127.11 204.303 127.123 204.318 127.673 204.318C128.222 204.318 128.236 204.303 128.236 203.675C128.236 203.047 128.222 203.032 127.673 203.032C127.123 203.032 127.11 203.047 127.11 203.675ZM38.7185 204.626C39.5414 205.642 38.7858 206.729 37.2579 206.729H36.2858V205.425V204.12L37.3522 204.188C38.2241 204.243 38.4735 204.324 38.7185 204.626ZM43.4318 205.348C41.4635 206.206 41.2624 209.139 43.0792 210.486C44.3826 211.451 47.4911 210.661 46.6917 209.567C46.4986 209.303 46.4437 209.307 45.7226 209.626C44.9597 209.963 44.6298 209.955 43.8677 209.579C43.5481 209.421 43.0375 208.712 43.0375 208.426C43.0375 208.378 43.9416 208.337 45.0467 208.337H47.0567V207.729C47.0567 205.817 45.1813 204.586 43.4318 205.348ZM50.1506 205.442C49.7241 205.702 49.6283 205.716 49.6283 205.522C49.6283 205.356 49.4565 205.283 49.0659 205.283H48.5034V209.141V213H49.1463H49.7892V211.724V210.446L50.231 210.677C51.402 211.288 52.9541 210.766 53.4924 209.58C54.7036 206.911 52.4063 204.066 50.1506 205.442ZM89.7582 205.519C89.2031 205.896 89.1731 205.9 89.1731 205.599C89.1731 205.337 89.0627 205.283 88.5302 205.283H87.8873V208.016V210.749H88.5302H89.1731L89.1738 209.182C89.1746 207.434 89.4532 206.699 90.2285 206.404C91.51 205.917 91.7448 206.281 91.7448 208.751V210.749H92.4001H93.0547L93.0028 208.405L92.9509 206.059L92.4257 205.59C91.7236 204.964 90.6199 204.934 89.7582 205.519ZM102.838 205.473C100.174 206.847 101.012 210.688 104.017 210.879C105.903 210.999 107.034 210.048 107.149 208.244C107.303 205.831 105.007 204.356 102.838 205.473ZM110.878 205.302C110.658 205.389 110.351 205.577 110.195 205.719C109.931 205.957 109.91 205.95 109.91 205.629C109.91 205.34 109.817 205.283 109.347 205.283H108.785V208.016V210.749H109.347H109.91V209.182C109.911 207.385 110.16 206.771 111.032 206.41C112.278 205.893 112.603 206.424 112.627 209.021L112.643 210.749H113.205H113.768V208.643C113.768 205.449 112.931 204.482 110.878 205.302ZM116.983 205.238C114.863 206.035 114.605 209.439 116.581 210.545C117.592 211.11 119.161 211.004 120.166 210.303C120.333 210.187 120.336 210.071 120.18 209.729C119.983 209.298 119.655 209.171 119.477 209.459C119.072 210.114 117.304 209.895 116.763 209.122C116.249 208.39 116.361 208.337 118.43 208.337H120.359V207.596C120.359 205.821 118.635 204.617 116.983 205.238ZM122.51 205.377C120.999 206.122 121.407 207.634 123.354 208.508C124.133 208.857 124.378 209.046 124.378 209.299C124.378 209.939 123.057 210.035 122.349 209.448C122.092 209.233 121.484 209.655 121.484 210.048C121.484 210.74 123.957 211.176 124.861 210.642C126.257 209.818 125.827 208.364 123.938 207.517C123.065 207.125 122.916 206.999 122.959 206.691C123.025 206.227 124.042 206.096 124.623 206.476C125.015 206.734 125.503 206.375 125.503 205.828C125.503 205.234 123.432 204.922 122.51 205.377ZM130.767 205.389C130.436 205.526 130.165 205.708 130.165 205.793C130.165 205.926 130.445 206.549 130.574 206.702C130.599 206.732 130.804 206.634 131.031 206.486C131.595 206.116 132.483 206.114 132.89 206.482C133.454 206.992 133.291 207.163 132.063 207.345C129.827 207.677 128.935 209.313 130.343 210.498C131.107 211.14 132.975 210.97 133.272 210.23C133.317 210.118 133.36 210.188 133.367 210.387C133.378 210.694 133.469 210.749 133.961 210.749H134.542L134.476 208.619C134.435 207.325 134.329 206.343 134.206 206.119C133.694 205.187 132.079 204.844 130.767 205.389ZM55.2544 207.389C55.2544 209.713 55.4402 210.402 56.154 210.727C56.8489 211.043 57.8831 210.95 58.5275 210.513C59.0826 210.136 59.1126 210.132 59.1126 210.432C59.1126 210.687 59.2223 210.749 59.6751 210.749H60.2375V208.016V205.283H59.6751H59.1126L59.1119 206.609C59.1104 208.853 58.6109 209.784 57.4084 209.784C56.6492 209.784 56.541 209.465 56.541 207.223V205.283H55.8973H55.2544V207.389ZM72.1333 208.016V210.749H72.7762H73.4191V208.016V205.283H72.7762H72.1333V208.016ZM127.11 208.016V210.749H127.673H128.236V208.016V205.283H127.673H127.11V208.016ZM45.3759 206.481C46.0963 207.202 45.9259 207.373 44.4843 207.373C43.1538 207.373 42.979 207.267 43.4047 206.718C43.9518 206.012 44.8039 205.909 45.3759 206.481ZM118.629 206.405C119.545 207.125 119.346 207.373 117.852 207.373C116.42 207.373 116.353 207.334 116.759 206.754C117.24 206.067 118.017 205.922 118.629 206.405ZM52.031 206.56C53.2649 207.795 52.2358 210.399 50.7569 209.786C49.9721 209.461 49.6715 208.776 49.76 207.517C49.8339 206.456 51.3062 205.836 52.031 206.56ZM65.7692 206.742C66.5277 207.643 66.2373 209.364 65.258 209.769C64.0548 210.268 62.9621 208.779 63.4492 207.304C63.8266 206.16 65.0342 205.868 65.7692 206.742ZM98.0898 206.659C99.2732 207.936 98.1871 210.388 96.7089 209.776C96.1018 209.525 95.7639 208.874 95.7639 207.956C95.7639 206.476 97.1858 205.683 98.0898 206.659ZM105.413 206.709C106.181 207.478 106.236 208.338 105.571 209.184C104.505 210.538 102.516 209.72 102.516 207.928C102.516 206.49 104.401 205.697 105.413 206.709ZM133.218 208.458C133.217 208.949 132.603 209.771 132.154 209.884C131.438 210.064 130.729 209.398 131.065 208.86C131.432 208.271 133.219 207.937 133.218 208.458Z" fill="#045464"/>
<path fill-rule="evenodd" clip-rule="evenodd" d="M226.334 76.5844C226.336 76.9384 226.369 77.0642 226.407 76.8638C226.445 76.6641 226.444 76.3744 226.404 76.2208C226.364 76.0672 226.332 76.231 226.334 76.5844ZM240.325 81.247C240.326 81.6889 240.358 81.8513 240.394 81.6062C240.432 81.3619 240.43 81.0005 240.392 80.803C240.354 80.6048 240.324 80.8052 240.325 81.247ZM198.854 95.7969C198.854 96.2833 198.884 96.4823 198.92 96.2387C198.957 95.9959 198.957 95.5979 198.92 95.3551C198.884 95.1115 198.854 95.3104 198.854 95.7969ZM228.745 109.252C228.9 109.293 229.153 109.293 229.308 109.252C229.463 109.211 229.336 109.179 229.027 109.179C228.717 109.179 228.591 109.211 228.745 109.252Z" fill="#427C54"/>
<path fill-rule="evenodd" clip-rule="evenodd" d="M211.464 67.6144C211.663 67.6525 211.989 67.6525 212.188 67.6144C212.386 67.5764 212.223 67.5449 211.825 67.5449C211.428 67.5449 211.265 67.5764 211.464 67.6144ZM226.17 73.2888C226.17 73.5982 226.203 73.7248 226.243 73.5697C226.283 73.4153 226.283 73.1622 226.243 73.0072C226.203 72.8528 226.17 72.9794 226.17 73.2888ZM226.339 77.871C226.34 78.3128 226.372 78.4745 226.408 78.2302C226.446 77.9858 226.444 77.6245 226.406 77.4262C226.368 77.2287 226.338 77.4284 226.339 77.871ZM240.319 79.9609C240.321 80.3143 240.354 80.4401 240.392 80.2404C240.43 80.0399 240.429 79.751 240.389 79.5974C240.349 79.4438 240.317 79.6069 240.319 79.9609ZM206.802 81.6017C207.001 81.6398 207.327 81.6398 207.525 81.6017C207.724 81.563 207.562 81.5322 207.164 81.5322C206.766 81.5322 206.603 81.563 206.802 81.6017ZM233.085 95.2643C233.24 95.3052 233.493 95.3052 233.647 95.2643C233.802 95.224 233.676 95.1911 233.366 95.1911C233.057 95.1911 232.93 95.224 233.085 95.2643ZM227.542 95.431C227.831 95.4669 228.265 95.4662 228.506 95.4296C228.748 95.393 228.511 95.3637 227.981 95.3645C227.451 95.3652 227.253 95.3952 227.542 95.431ZM212.675 99.4141C212.677 99.8567 212.708 100.018 212.745 99.774C212.781 99.5297 212.781 99.1676 212.743 98.9701C212.705 98.7719 212.674 98.9723 212.675 99.4141ZM199.006 101.504C199.008 101.858 199.041 101.984 199.079 101.784C199.118 101.584 199.116 101.294 199.076 101.141C199.036 100.987 199.004 101.151 199.006 101.504ZM212.827 103.835C212.827 104.145 212.86 104.271 212.901 104.117C212.942 103.962 212.942 103.709 212.901 103.554C212.86 103.399 212.827 103.526 212.827 103.835ZM227.539 109.254C227.738 109.293 228.064 109.293 228.263 109.254C228.462 109.216 228.298 109.185 227.901 109.185C227.503 109.185 227.34 109.216 227.539 109.254Z" fill="#588454"/>
<path fill-rule="evenodd" clip-rule="evenodd" d="M210.18 67.6142C210.379 67.653 210.669 67.6515 210.823 67.6113C210.976 67.5711 210.813 67.5396 210.459 67.5411C210.106 67.5433 209.98 67.5762 210.18 67.6142ZM226.334 75.459C226.335 75.8123 226.368 75.9381 226.407 75.7384C226.445 75.5387 226.444 75.249 226.403 75.0954C226.363 74.9418 226.332 75.1049 226.334 75.459ZM208.088 81.6015C208.287 81.6396 208.612 81.6396 208.811 81.6015C209.01 81.5628 208.848 81.532 208.45 81.532C208.052 81.532 207.889 81.5628 208.088 81.6015ZM232.042 95.267C232.242 95.3058 232.531 95.3043 232.685 95.2641C232.838 95.2238 232.675 95.1924 232.321 95.1938C231.968 95.196 231.842 95.2289 232.042 95.267ZM199.006 100.379C199.008 100.732 199.041 100.858 199.079 100.658C199.118 100.459 199.116 100.169 199.076 100.015C199.036 99.8616 199.004 100.025 199.006 100.379ZM212.67 100.7C212.672 101.054 212.705 101.18 212.743 100.979C212.781 100.78 212.78 100.49 212.74 100.336C212.699 100.183 212.668 100.347 212.67 100.7ZM212.827 104.8C212.827 105.11 212.86 105.236 212.901 105.081C212.942 104.927 212.942 104.674 212.901 104.518C212.86 104.364 212.827 104.491 212.827 104.8ZM229.709 109.251C229.864 109.292 230.117 109.292 230.272 109.251C230.427 109.211 230.3 109.178 229.99 109.178C229.681 109.178 229.554 109.211 229.709 109.251Z" fill="#21695C"/>
</g>
<defs>
<filter id="filter0_d_805_3223" x="0.305664" y="0" width="303.751" height="258.957" filterUnits="userSpaceOnUse" color-interpolation-filters="sRGB">
<feFlood flood-opacity="0" result="BackgroundImageFix"/>
<feColorMatrix in="SourceAlpha" type="matrix" values="0 0 0 0 0 0 0 0 0 0 0 0 0 0 0 0 0 0 127 0" result="hardAlpha"/>
<feOffset dy="4"/>
<feGaussianBlur stdDeviation="2"/>
<feComposite in2="hardAlpha" operator="out"/>
<feColorMatrix type="matrix" values="0 0 0 0 0 0 0 0 0 0 0 0 0 0 0 0 0 0 0.25 0"/>
<feBlend mode="normal" in2="BackgroundImageFix" result="effect1_dropShadow_805_3223"/>
<feBlend mode="normal" in="SourceGraphic" in2="effect1_dropShadow_805_3223" result="shape"/>
</filter>
<clipPath id="clip0_805_3223">
<rect width="235" height="175" fill="white" transform="translate(35 38)"/>
</clipPath>
</defs>
</svg>
